<?xml version="1.0" standalone="no"?>
<!DOCTYPE svg PUBLIC "-//W3C//DTD SVG 20010904//EN"
 "http://www.w3.org/TR/2001/REC-SVG-20010904/DTD/svg10.dtd">
<svg version="1.0" xmlns="http://www.w3.org/2000/svg"
 width="3334.000000pt" height="3334.000000pt" viewBox="0 0 3334.000000 3334.000000"
 preserveAspectRatio="xMidYMid meet">
<metadata>
Created by potrace 1.14, written by Peter Selinger 2001-2017
</metadata>
<g transform="translate(0.000000,3334.000000) scale(0.100000,-0.100000)"
fill="#000000" stroke="none">
<path d="M16237 33334 c-1 -1 -89 -5 -196 -8 -106 -4 -225 -8 -265 -11 -39 -3
-111 -7 -161 -10 -49 -3 -117 -7 -150 -10 -33 -3 -89 -7 -125 -10 -36 -2 -96
-7 -135 -10 -38 -3 -90 -8 -114 -11 -24 -3 -67 -7 -95 -9 -70 -6 -180 -18
-276 -30 -19 -3 -57 -7 -85 -10 -51 -6 -260 -33 -305 -40 -14 -2 -45 -7 -70
-10 -56 -8 -98 -14 -130 -20 -14 -2 -45 -7 -70 -10 -47 -7 -198 -32 -355 -60
-49 -9 -103 -18 -118 -21 -80 -13 -405 -81 -577 -120 -107 -24 -206 -47 -220
-50 -14 -3 -88 -21 -165 -40 -77 -20 -147 -37 -155 -39 -20 -4 -136 -36 -310
-84 -125 -35 -434 -127 -595 -179 -27 -8 -54 -17 -60 -18 -11 -3 -416 -143
-515 -179 -165 -59 -484 -181 -585 -224 -11 -5 -60 -26 -110 -46 -49 -20 -103
-42 -120 -50 -139 -61 -158 -69 -167 -67 -5 1 -8 -3 -8 -8 0 -6 -6 -10 -13
-10 -12 0 -141 -57 -389 -171 -188 -87 -685 -339 -893 -453 -153 -84 -186
-103 -345 -194 -439 -253 -906 -552 -1320 -846 -139 -99 -407 -295 -434 -318
-6 -5 -38 -29 -71 -54 -101 -77 -112 -86 -228 -178 -93 -75 -246 -199 -356
-291 -57 -47 -405 -349 -430 -374 -15 -14 -75 -69 -132 -121 -305 -278 -737
-711 -1004 -1005 -60 -66 -112 -122 -115 -125 -10 -8 -222 -252 -265 -304 -22
-26 -47 -56 -56 -65 -30 -31 -167 -198 -305 -371 -374 -468 -721 -953 -1053
-1474 -78 -122 -370 -604 -385 -636 -4 -8 -12 -24 -19 -35 -13 -22 -109 -191
-152 -270 -86 -157 -253 -474 -274 -520 -5 -11 -49 -103 -99 -205 -94 -195
-172 -360 -172 -365 0 -2 -15 -36 -34 -77 -92 -200 -366 -861 -366 -884 0 -3
-6 -20 -14 -37 -8 -18 -29 -72 -46 -122 -18 -49 -36 -99 -41 -110 -31 -69
-281 -830 -304 -925 -2 -8 -24 -87 -50 -175 -50 -174 -171 -644 -204 -792 -12
-51 -30 -132 -40 -180 -11 -49 -23 -103 -26 -122 -3 -19 -8 -38 -10 -41 -3 -4
-7 -25 -10 -46 -4 -22 -8 -46 -11 -55 -2 -9 -7 -33 -9 -54 -3 -20 -7 -40 -9
-44 -3 -3 -7 -27 -11 -51 -3 -25 -10 -61 -15 -80 -5 -19 -11 -53 -15 -75 -3
-23 -8 -52 -10 -65 -3 -14 -8 -40 -11 -59 -3 -18 -8 -43 -10 -55 -2 -11 -6
-34 -9 -51 -3 -16 -7 -43 -10 -60 -7 -43 -53 -341 -60 -395 -3 -25 -8 -56 -10
-70 -2 -14 -11 -83 -20 -155 -22 -181 -23 -193 -30 -255 -3 -30 -8 -71 -10
-90 -6 -43 -11 -101 -20 -205 -4 -44 -8 -94 -10 -112 -2 -17 -7 -69 -10 -115
-3 -45 -8 -105 -10 -133 -3 -27 -7 -99 -10 -160 -3 -60 -8 -132 -10 -160 -26
-326 -26 -1317 0 -1755 2 -36 6 -119 10 -185 3 -66 8 -136 10 -155 2 -19 7
-80 10 -134 4 -55 8 -107 10 -115 1 -9 6 -56 10 -106 3 -49 8 -103 10 -120 4
-31 9 -75 20 -180 4 -33 8 -71 10 -85 2 -14 7 -52 10 -85 4 -33 8 -72 11 -86
2 -15 6 -47 9 -70 3 -24 8 -57 10 -74 2 -16 6 -52 10 -80 3 -27 10 -75 15
-105 5 -30 12 -75 15 -99 3 -23 7 -46 9 -50 2 -3 6 -28 10 -56 3 -27 8 -61 10
-75 3 -14 7 -41 10 -60 3 -19 8 -48 11 -65 6 -33 9 -49 20 -110 81 -464 218
-1060 355 -1545 34 -118 65 -228 70 -245 138 -493 483 -1437 711 -1942 12 -27
32 -70 44 -98 13 -27 42 -93 65 -145 82 -185 414 -847 519 -1035 19 -33 45
-80 59 -105 387 -704 938 -1537 1421 -2150 115 -146 225 -284 231 -290 3 -3
48 -57 100 -120 110 -134 96 -117 281 -330 254 -292 445 -496 764 -815 275
-274 335 -331 629 -600 6 -6 49 -44 96 -85 47 -41 87 -77 90 -80 8 -10 223
-193 269 -230 23 -19 52 -42 62 -52 11 -9 38 -31 59 -48 21 -17 48 -39 59 -48
48 -41 66 -56 153 -124 51 -39 116 -90 143 -112 28 -23 63 -50 79 -61 16 -11
33 -25 40 -30 33 -31 402 -300 586 -429 84 -58 446 -300 530 -354 36 -23 70
-46 77 -52 7 -5 14 -10 17 -10 3 0 43 -24 88 -53 217 -140 678 -406 989 -572
145 -77 590 -300 734 -367 256 -119 296 -138 300 -138 2 0 32 -13 67 -29 35
-16 108 -48 163 -71 55 -23 114 -48 130 -55 36 -16 249 -102 430 -173 353
-138 932 -334 1275 -433 199 -57 362 -102 410 -115 30 -8 63 -17 72 -19 10 -3
26 -7 35 -9 10 -2 108 -27 218 -54 110 -27 218 -53 240 -57 22 -5 45 -9 50
-11 32 -8 144 -34 165 -38 14 -3 90 -18 170 -35 158 -33 188 -38 239 -47 18
-3 43 -8 55 -10 11 -2 46 -8 76 -14 30 -6 66 -12 80 -15 13 -3 42 -7 65 -10
22 -3 49 -9 59 -12 11 -3 33 -7 50 -8 17 -2 58 -8 91 -14 33 -6 80 -13 105
-16 25 -3 68 -10 95 -15 28 -5 73 -12 100 -15 28 -3 61 -8 75 -10 26 -4 230
-30 315 -40 28 -3 65 -7 83 -10 18 -2 67 -7 110 -10 42 -4 85 -9 94 -10 9 -2
57 -7 105 -10 48 -4 99 -8 113 -10 27 -4 136 -13 245 -20 39 -2 102 -7 140
-10 75 -6 166 -10 445 -21 359 -15 1150 -9 1500 11 233 13 487 30 575 40 22 3
74 7 115 10 41 3 84 7 95 9 11 2 56 7 100 10 44 4 91 9 105 11 14 2 48 7 75
10 28 3 84 10 125 15 41 5 102 12 135 16 33 3 62 7 65 9 3 2 34 6 70 10 36 4
68 9 71 11 3 2 32 6 64 10 32 3 68 8 79 10 12 2 37 6 56 9 19 3 46 7 60 10 14
3 40 7 57 10 62 8 477 83 503 90 8 2 29 7 46 10 25 4 327 67 384 80 8 2 56 13
105 24 82 18 509 125 545 136 8 2 31 9 50 14 204 53 556 157 817 242 173 56
596 204 628 219 17 9 126 49 220 82 17 6 35 14 40 18 6 4 28 13 50 20 22 7 54
18 70 26 17 7 59 25 95 40 36 14 76 31 90 37 14 5 30 11 35 12 6 2 35 14 65
28 30 13 120 53 200 87 410 178 1010 473 1365 673 50 27 106 59 125 70 277
156 583 339 825 495 118 76 419 276 432 287 7 5 49 35 93 65 67 46 206 144
345 245 79 58 395 298 454 345 134 109 415 337 435 355 6 6 56 48 111 95 55
47 102 87 105 90 3 4 46 42 95 85 50 44 110 98 135 121 25 23 76 70 115 105
212 194 659 638 845 838 58 62 116 125 130 140 567 611 1160 1371 1645 2107
99 150 335 522 335 529 0 1 18 32 40 66 32 52 87 146 165 281 17 29 206 370
235 423 84 153 269 519 335 660 18 39 58 123 89 188 31 64 56 119 56 121 0 2
17 42 39 88 21 45 75 171 121 278 45 107 88 209 95 225 7 17 27 64 43 105 16
41 33 84 37 95 4 11 9 25 11 30 2 6 39 105 84 220 116 304 302 861 395 1185
19 69 42 148 50 175 8 28 17 59 20 70 3 11 34 133 70 270 36 138 90 363 120
500 72 323 74 334 80 375 3 19 8 42 10 50 2 8 7 29 10 45 2 17 7 40 9 51 2 12
7 39 10 60 4 22 8 46 11 54 2 8 6 31 9 50 3 19 8 46 11 60 9 45 24 134 30 180
3 25 8 52 10 60 2 8 7 35 10 60 3 25 8 52 10 60 2 8 6 38 10 65 9 71 15 116
20 145 3 14 7 44 10 68 10 86 15 125 20 151 2 14 7 53 10 86 3 33 7 71 10 85
3 14 7 50 10 80 2 30 6 73 9 95 2 22 7 65 10 95 3 30 8 80 11 110 11 108 15
156 20 234 4 44 8 99 10 123 3 38 8 117 20 338 26 456 26 1294 0 1750 -2 44
-7 130 -10 191 -3 61 -8 124 -10 140 -2 16 -6 72 -10 124 -3 52 -8 109 -9 125
-2 17 -7 68 -11 115 -4 47 -8 92 -10 100 -2 8 -6 50 -10 93 -3 43 -8 86 -10
95 -1 9 -6 49 -9 87 -4 39 -9 81 -11 95 -4 26 -15 104 -20 155 -7 57 -14 110
-45 310 -16 110 -32 216 -35 235 -3 19 -8 46 -11 60 -3 14 -8 41 -10 60 -3 19
-11 67 -19 105 -7 39 -16 86 -19 105 -8 55 -92 465 -115 562 -11 47 -23 99
-26 115 -19 106 -193 772 -246 943 -11 36 -22 72 -24 80 -2 8 -20 67 -40 130
-19 63 -38 124 -40 134 -10 45 -183 547 -255 741 -135 364 -330 840 -455 1110
-20 44 -47 103 -60 130 -49 105 -337 685 -396 795 -254 477 -539 955 -839
1405 -133 201 -165 247 -252 370 -16 22 -36 51 -46 65 -89 130 -336 460 -506
675 -61 77 -116 147 -123 155 -6 8 -38 47 -70 85 -32 39 -65 79 -74 90 -29 35
-323 379 -339 396 -8 8 -51 56 -95 105 -314 348 -896 936 -1121 1131 -21 18
-162 145 -214 193 -15 14 -51 45 -80 70 -29 25 -58 50 -64 55 -6 6 -69 60
-141 121 -402 341 -785 635 -1285 986 -312 218 -934 611 -1225 772 -27 16
-108 61 -180 101 -352 198 -857 450 -1275 637 -311 139 -769 326 -1010 413
-41 15 -97 35 -125 46 -273 102 -1046 348 -1240 394 -11 3 -153 39 -315 81
-289 74 -600 146 -780 179 -14 3 -36 7 -50 10 -48 10 -404 77 -430 80 -40 7
-212 35 -240 41 -14 2 -47 7 -75 10 -27 3 -53 8 -56 10 -3 2 -32 6 -64 10 -32
3 -67 7 -78 10 -11 2 -45 6 -76 10 -31 3 -63 7 -71 9 -8 1 -44 6 -80 10 -36 4
-73 9 -82 10 -9 2 -48 7 -85 10 -37 4 -76 9 -85 10 -9 2 -48 6 -85 10 -37 3
-84 8 -103 10 -34 4 -81 9 -220 20 -286 24 -293 25 -575 40 -259 14 -345 16
-813 19 -270 1 -493 1 -495 0z"/>
</g>
</svg>
